<svg xmlns="http://www.w3.org/2000/svg" viewBox="0 0 1200 675" width="1200" height="675" role="img" aria-label="ภาพปกหมวด finance">
  <defs>
    <linearGradient id="g" x1="0" y1="0" x2="1" y2="1">
      <stop offset="0" stop-color="#ecfdf5"/>
      <stop offset="1" stop-color="#a7f3d0"/>
    </linearGradient>
  </defs>
  <rect width="1200" height="675" fill="url(#g)"/>
  <circle cx="210" cy="170" r="96" fill="#ffffff" opacity="0.35"/><circle cx="980" cy="210" r="130" fill="#ffffff" opacity="0.35"/><circle cx="330" cy="520" r="74" fill="#ffffff" opacity="0.35"/><circle cx="900" cy="540" r="60" fill="#ffffff" opacity="0.35"/>
  <g transform="translate(470 207.5) scale(10.833333333333334)" fill="none" stroke="#0f172a" stroke-opacity="0.72" stroke-width="1.4" stroke-linecap="round" stroke-linejoin="round">
    <path d="M9.5 3h5l-1.2 3.2h-2.6L9.5 3Zm-.3 3.2C6.9 7.6 4.5 10.9 4.5 14.5A6.5 6.5 0 0 0 11 21h2a6.5 6.5 0 0 0 6.5-6.5c0-3.6-2.4-6.9-4.7-8.3M12 10.5v6m1.9-4.6a1.9 1.9 0 0 0-1.9-1.1c-1.1 0-1.9.6-1.9 1.5s.8 1.4 1.9 1.4 1.9.5 1.9 1.4-.8 1.5-1.9 1.5a1.9 1.9 0 0 1-1.9-1.1"/>
  </g>
</svg>
